<svg width="184" height="32" viewBox="0 0 184 32" fill="none" xmlns="http://www.w3.org/2000/svg">
    <path d="M16.06 31L9.782 19.605H8.019V31H0.666V0.813999H13.007C15.3863 0.813999 17.4073 1.22967 19.07 2.061C20.7613 2.89233 22.0227 4.039 22.854 5.501C23.6853 6.93433 24.101 8.53966 24.101 10.317C24.101 12.3237 23.5277 14.1153 22.381 15.692C21.263 17.2687 19.6003 18.3867 17.393 19.046L24.359 31H16.06ZM8.019 14.402H12.577C13.9243 14.402 14.9277 14.0723 15.587 13.413C16.275 12.7537 16.619 11.822 16.619 10.618C16.619 9.47133 16.275 8.56833 15.587 7.909C14.9277 7.24967 13.9243 6.92 12.577 6.92H8.019V14.402ZM50.4318 0.813999V6.705H42.4338V31H35.0808V6.705H27.0828V0.813999H50.4318ZM72.3971 15.52C74.1457 15.8927 75.5504 16.767 76.6111 18.143C77.6717 19.4903 78.2021 21.0383 78.2021 22.787C78.2021 25.3097 77.3134 27.3163 75.5361 28.807C73.7874 30.269 71.3364 31 68.1831 31H54.1221V0.813999H67.7101C70.7774 0.813999 73.1711 1.51633 74.8911 2.921C76.6397 4.32566 77.5141 6.232 77.5141 8.64C77.5141 10.4173 77.0411 11.8937 76.0951 13.069C75.1777 14.2443 73.9451 15.0613 72.3971 15.52ZM61.4751 13.026H66.2911C67.4951 13.026 68.4124 12.768 69.0431 12.252C69.7024 11.7073 70.0321 10.919 70.0321 9.887C70.0321 8.855 69.7024 8.06667 69.0431 7.522C68.4124 6.97733 67.4951 6.705 66.2911 6.705H61.4751V13.026ZM66.8931 25.066C68.1257 25.066 69.0717 24.7937 69.7311 24.249C70.4191 23.6757 70.7631 22.8587 70.7631 21.798C70.7631 20.7373 70.4047 19.906 69.6881 19.304C69.0001 18.702 68.0397 18.401 66.8071 18.401H61.4751V25.066H66.8931ZM100.957 12.854V18.96H82.0368V12.854H100.957ZM114.763 6.705V12.811H124.61V18.487H114.763V25.109H125.9V31H107.41V0.813999H125.9V6.705H114.763ZM141.983 0.813999C145.165 0.813999 147.945 1.44467 150.325 2.706C152.704 3.96733 154.539 5.74467 155.829 8.038C157.147 10.3027 157.807 12.9257 157.807 15.907C157.807 18.8597 157.147 21.4827 155.829 23.776C154.539 26.0693 152.69 27.8467 150.282 29.108C147.902 30.3693 145.136 31 141.983 31H130.674V0.813999H141.983ZM141.51 24.636C144.29 24.636 146.455 23.8763 148.003 22.357C149.551 20.8377 150.325 18.6877 150.325 15.907C150.325 13.1263 149.551 10.962 148.003 9.414C146.455 7.866 144.29 7.092 141.51 7.092H138.027V24.636H141.51ZM172.838 31.301C170.631 31.301 168.653 30.9427 166.904 30.226C165.155 29.5093 163.751 28.4487 162.69 27.044C161.658 25.6393 161.113 23.948 161.056 21.97H168.882C168.997 23.088 169.384 23.948 170.043 24.55C170.702 25.1233 171.562 25.41 172.623 25.41C173.712 25.41 174.572 25.1663 175.203 24.679C175.834 24.163 176.149 23.4607 176.149 22.572C176.149 21.8267 175.891 21.2103 175.375 20.723C174.888 20.2357 174.271 19.8343 173.526 19.519C172.809 19.2037 171.777 18.8453 170.43 18.444C168.481 17.842 166.89 17.24 165.657 16.638C164.424 16.036 163.364 15.1473 162.475 13.972C161.586 12.7967 161.142 11.263 161.142 9.371C161.142 6.56167 162.16 4.36867 164.195 2.792C166.23 1.18667 168.882 0.383999 172.15 0.383999C175.475 0.383999 178.156 1.18667 180.191 2.792C182.226 4.36867 183.316 6.576 183.459 9.414H175.504C175.447 8.43933 175.088 7.67967 174.429 7.135C173.77 6.56167 172.924 6.275 171.892 6.275C171.003 6.275 170.287 6.51866 169.742 7.006C169.197 7.46466 168.925 8.13833 168.925 9.027C168.925 10.0017 169.384 10.7613 170.301 11.306C171.218 11.8507 172.652 12.4383 174.601 13.069C176.55 13.7283 178.127 14.359 179.331 14.961C180.564 15.563 181.624 16.4373 182.513 17.584C183.402 18.7307 183.846 20.207 183.846 22.013C183.846 23.733 183.402 25.2953 182.513 26.7C181.653 28.1047 180.392 29.2227 178.729 30.054C177.066 30.8853 175.103 31.301 172.838 31.301Z" fill="url(#paint0_linear_1_4)"/>
    <path d="M16.06 31L15.1841 31.4826L15.4692 32H16.06V31ZM9.782 19.605L10.6579 19.1224L10.3728 18.605H9.782V19.605ZM8.019 19.605V18.605H7.019V19.605H8.019ZM8.019 31V32H9.019V31H8.019ZM0.666 31H-0.334V32H0.666V31ZM0.666 0.813999V-0.186001H-0.334V0.813999H0.666ZM19.07 2.061L18.6228 2.95545L18.6289 2.95845L19.07 2.061ZM22.854 5.501L21.9847 5.99532L21.989 6.00272L22.854 5.501ZM22.381 15.692L21.5722 15.1038L21.5653 15.1136L22.381 15.692ZM17.393 19.046L17.1068 18.0878L15.8892 18.4515L16.529 19.5495L17.393 19.046ZM24.359 31V32H26.0991L25.223 30.4965L24.359 31ZM8.019 14.402H7.019V15.402H8.019V14.402ZM15.587 13.413L14.8951 12.691L14.8874 12.6984L14.8799 12.7059L15.587 13.413ZM15.587 7.909L14.8799 8.61611L14.8874 8.62363L14.8951 8.63099L15.587 7.909ZM8.019 6.92V5.92H7.019V6.92H8.019ZM16.9359 30.5174L10.6579 19.1224L8.90613 20.0876L15.1841 31.4826L16.9359 30.5174ZM9.782 18.605H8.019V20.605H9.782V18.605ZM7.019 19.605V31H9.019V19.605H7.019ZM8.019 30H0.666V32H8.019V30ZM1.666 31V0.813999H-0.334V31H1.666ZM0.666 1.814H13.007V-0.186001H0.666V1.814ZM13.007 1.814C15.2732 1.814 17.1323 2.21018 18.6228 2.95543L19.5172 1.16657C17.6824 0.249148 15.4994 -0.186001 13.007 -0.186001V1.814ZM18.6289 2.95845C20.1628 3.71242 21.2642 4.72817 21.9847 5.9953L23.7233 5.0067C22.7812 3.34983 21.3598 2.07224 19.5111 1.16355L18.6289 2.95845ZM21.989 6.00272C22.7255 7.27256 23.101 8.70263 23.101 10.317H25.101C25.101 8.3767 24.6452 6.5961 23.719 4.99928L21.989 6.00272ZM23.101 10.317C23.101 12.119 22.5908 13.7034 21.5723 15.1038L23.1897 16.2802C24.4646 14.5273 25.101 12.5284 25.101 10.317H23.101ZM21.5653 15.1136C20.6 16.4749 19.1427 17.4797 17.1068 18.0878L17.6792 20.0042C20.058 19.2936 21.926 18.0624 23.1967 16.2704L21.5653 15.1136ZM16.529 19.5495L23.495 31.5035L25.223 30.4965L18.257 18.5425L16.529 19.5495ZM24.359 30H16.06V32H24.359V30ZM8.019 15.402H12.577V13.402H8.019V15.402ZM12.577 15.402C14.0712 15.402 15.3775 15.0367 16.2941 14.1201L14.8799 12.7059C14.4778 13.108 13.7775 13.402 12.577 13.402V15.402ZM16.2789 14.135C17.2126 13.2402 17.619 12.0185 17.619 10.618H15.619C15.619 11.6255 15.3374 12.2672 14.8951 12.691L16.2789 14.135ZM17.619 10.618C17.619 9.25841 17.203 8.0726 16.2789 7.18701L14.8951 8.63099C15.347 9.06407 15.619 9.68426 15.619 10.618H17.619ZM16.2941 7.20189C15.3775 6.28528 14.0712 5.92 12.577 5.92V7.92C13.7775 7.92 14.4778 8.21405 14.8799 8.61611L16.2941 7.20189ZM12.577 5.92H8.019V7.92H12.577V5.92ZM7.019 6.92V14.402H9.019V6.92H7.019ZM50.4318 0.813999H51.4318V-0.186001H50.4318V0.813999ZM50.4318 6.705V7.705H51.4318V6.705H50.4318ZM42.4338 6.705V5.705H41.4338V6.705H42.4338ZM42.4338 31V32H43.4338V31H42.4338ZM35.0808 31H34.0808V32H35.0808V31ZM35.0808 6.705H36.0808V5.705H35.0808V6.705ZM27.0828 6.705H26.0828V7.705H27.0828V6.705ZM27.0828 0.813999V-0.186001H26.0828V0.813999H27.0828ZM49.4318 0.813999V6.705H51.4318V0.813999H49.4318ZM50.4318 5.705H42.4338V7.705H50.4318V5.705ZM41.4338 6.705V31H43.4338V6.705H41.4338ZM42.4338 30H35.0808V32H42.4338V30ZM36.0808 31V6.705H34.0808V31H36.0808ZM35.0808 5.705H27.0828V7.705H35.0808V5.705ZM28.0828 6.705V0.813999H26.0828V6.705H28.0828ZM27.0828 1.814H50.4318V-0.186001H27.0828V1.814ZM72.3971 15.52L72.113 14.5612L72.1886 16.498L72.3971 15.52ZM76.6111 18.143L75.819 18.7535L75.8253 18.7616L76.6111 18.143ZM75.5361 28.807L76.1775 29.5742L76.1787 29.5732L75.5361 28.807ZM54.1221 31H53.1221V32H54.1221V31ZM54.1221 0.813999V-0.186001H53.1221V0.813999H54.1221ZM74.8911 2.921L74.2585 3.69556L74.2648 3.70062L74.8911 2.921ZM76.0951 13.069L75.316 12.442L75.3113 12.4478L75.3067 12.4537L76.0951 13.069ZM61.4751 13.026H60.4751V14.026H61.4751V13.026ZM69.0431 12.252L69.6763 13.026L69.6799 13.023L69.0431 12.252ZM69.0431 7.522L68.3894 8.27882L68.3977 8.28598L68.4062 8.29296L69.0431 7.522ZM61.4751 6.705V5.705H60.4751V6.705H61.4751ZM69.7311 24.249L70.3679 25.02L70.3712 25.0172L69.7311 24.249ZM69.6881 19.304L69.0296 20.0566L69.0371 20.0632L69.0449 20.0697L69.6881 19.304ZM61.4751 18.401V17.401H60.4751V18.401H61.4751ZM61.4751 25.066H60.4751V26.066H61.4751V25.066ZM72.1886 16.498C73.7127 16.8228 74.9077 17.5712 75.819 18.7535L77.4031 17.5325C76.1931 15.9628 74.5787 14.9625 72.6055 14.542L72.1886 16.498ZM75.8253 18.7616C76.7442 19.9288 77.2021 21.2579 77.2021 22.787H79.2021C79.2021 20.8188 78.5992 19.0518 77.3968 17.5244L75.8253 18.7616ZM77.2021 22.787C77.2021 25.0434 76.4227 26.7582 74.8934 28.0408L76.1787 29.5732C78.2041 27.8744 79.2021 25.576 79.2021 22.787H77.2021ZM74.8946 28.0398C73.3842 29.3026 71.1912 30 68.1831 30V32C71.4815 32 74.1906 31.2354 76.1775 29.5742L74.8946 28.0398ZM68.1831 30H54.1221V32H68.1831V30ZM55.1221 31V0.813999H53.1221V31H55.1221ZM54.1221 1.814H67.7101V-0.186001H54.1221V1.814ZM67.7101 1.814C70.634 1.814 72.7745 2.48362 74.2585 3.69553L75.5236 2.14647C73.5676 0.549047 70.9208 -0.186001 67.7101 -0.186001V1.814ZM74.2648 3.70062C75.7579 4.90001 76.5141 6.50949 76.5141 8.64H78.5141C78.5141 5.95451 77.5215 3.75132 75.5173 2.14138L74.2648 3.70062ZM76.5141 8.64C76.5141 10.2316 76.0945 11.4748 75.316 12.442L76.8741 13.696C77.9876 12.3126 78.5141 10.603 78.5141 8.64H76.5141ZM75.3067 12.4537C74.5284 13.451 73.4787 14.1566 72.113 14.5612L72.6811 16.4788C74.4115 15.9661 75.8271 15.0376 76.8834 13.6843L75.3067 12.4537ZM61.4751 14.026H66.2911V12.026H61.4751V14.026ZM66.2911 14.026C67.6194 14.026 68.799 13.7437 69.6763 13.026L68.4098 11.478C68.0258 11.7922 67.3707 12.026 66.2911 12.026V14.026ZM69.6799 13.023C70.617 12.2489 71.0321 11.1493 71.0321 9.887H69.0321C69.0321 10.6887 68.7878 11.1658 68.4062 11.481L69.6799 13.023ZM71.0321 9.887C71.0321 8.62472 70.617 7.52511 69.6799 6.75104L68.4062 8.29296C68.7878 8.60822 69.0321 9.08527 69.0321 9.887H71.0321ZM69.6967 6.76518C68.8183 6.00655 67.6302 5.705 66.2911 5.705V7.705C67.3599 7.705 68.0065 7.94812 68.3894 8.27882L69.6967 6.76518ZM66.2911 5.705H61.4751V7.705H66.2911V5.705ZM60.4751 6.705V13.026H62.4751V6.705H60.4751ZM66.8931 26.066C68.258 26.066 69.4649 25.7659 70.3679 25.02L69.0942 23.478C68.6785 23.8214 67.9935 24.066 66.8931 24.066V26.066ZM70.3712 25.0172C71.33 24.2182 71.7631 23.0948 71.7631 21.798H69.7631C69.7631 22.6225 69.5081 23.1331 69.0909 23.4808L70.3712 25.0172ZM71.7631 21.798C71.7631 20.4861 71.3059 19.357 70.3312 18.5383L69.0449 20.0697C69.5036 20.455 69.7631 20.9886 69.7631 21.798H71.7631ZM70.3466 18.5514C69.421 17.7416 68.1968 17.401 66.8071 17.401V19.401C67.8826 19.401 68.5791 19.6624 69.0296 20.0566L70.3466 18.5514ZM66.8071 17.401H61.4751V19.401H66.8071V17.401ZM60.4751 18.401V25.066H62.4751V18.401H60.4751ZM61.4751 26.066H66.8931V24.066H61.4751V26.066ZM100.957 12.854H101.957V11.854H100.957V12.854ZM100.957 18.96V19.96H101.957V18.96H100.957ZM82.0368 18.96H81.0368V19.96H82.0368V18.96ZM82.0368 12.854V11.854H81.0368V12.854H82.0368ZM99.9568 12.854V18.96H101.957V12.854H99.9568ZM100.957 17.96H82.0368V19.96H100.957V17.96ZM83.0368 18.96V12.854H81.0368V18.96H83.0368ZM82.0368 13.854H100.957V11.854H82.0368V13.854ZM114.763 6.705V5.705H113.763V6.705H114.763ZM114.763 12.811H113.763V13.811H114.763V12.811ZM124.61 12.811H125.61V11.811H124.61V12.811ZM124.61 18.487V19.487H125.61V18.487H124.61ZM114.763 18.487V17.487H113.763V18.487H114.763ZM114.763 25.109H113.763V26.109H114.763V25.109ZM125.9 25.109H126.9V24.109H125.9V25.109ZM125.9 31V32H126.9V31H125.9ZM107.41 31H106.41V32H107.41V31ZM107.41 0.813999V-0.186001H106.41V0.813999H107.41ZM125.9 0.813999H126.9V-0.186001H125.9V0.813999ZM125.9 6.705V7.705H126.9V6.705H125.9ZM113.763 6.705V12.811H115.763V6.705H113.763ZM114.763 13.811H124.61V11.811H114.763V13.811ZM123.61 12.811V18.487H125.61V12.811H123.61ZM124.61 17.487H114.763V19.487H124.61V17.487ZM113.763 18.487V25.109H115.763V18.487H113.763ZM114.763 26.109H125.9V24.109H114.763V26.109ZM124.9 25.109V31H126.9V25.109H124.9ZM125.9 30H107.41V32H125.9V30ZM108.41 31V0.813999H106.41V31H108.41ZM107.41 1.814H125.9V-0.186001H107.41V1.814ZM124.9 0.813999V6.705H126.9V0.813999H124.9ZM125.9 5.705H114.763V7.705H125.9V5.705ZM150.325 2.706L150.793 1.82247L150.793 1.82247L150.325 2.706ZM155.829 8.038L154.957 8.52826L154.961 8.53475L154.965 8.54119L155.829 8.038ZM155.829 23.776L154.962 23.2775L154.957 23.2857L155.829 23.776ZM150.282 29.108L149.818 28.2222L149.813 28.2245L150.282 29.108ZM130.674 31H129.674V32H130.674V31ZM130.674 0.813999V-0.186001H129.674V0.813999H130.674ZM138.027 7.092V6.092H137.027V7.092H138.027ZM138.027 24.636H137.027V25.636H138.027V24.636ZM141.983 1.814C145.031 1.814 147.645 2.41744 149.856 3.58953L150.793 1.82247C148.246 0.471891 145.298 -0.186001 141.983 -0.186001V1.814ZM149.856 3.58953C152.071 4.76334 153.763 6.40604 154.957 8.52826L156.7 7.54774C155.314 5.08329 153.338 3.17133 150.793 1.82247L149.856 3.58953ZM154.965 8.54119C156.183 10.633 156.807 13.0777 156.807 15.907H158.807C158.807 12.7737 158.112 9.97232 156.693 7.53481L154.965 8.54119ZM156.807 15.907C156.807 18.7055 156.184 21.1529 154.962 23.2775L156.696 24.2745C158.111 21.8124 158.807 19.0138 158.807 15.907H156.807ZM154.957 23.2857C153.765 25.4048 152.061 27.0474 149.818 28.2222L150.746 29.9938C153.319 28.6459 155.312 26.7339 156.7 24.2663L154.957 23.2857ZM149.813 28.2245C147.601 29.3972 145.001 30 141.983 30V32C145.271 32 148.204 31.3414 150.75 29.9915L149.813 28.2245ZM141.983 30H130.674V32H141.983V30ZM131.674 31V0.813999H129.674V31H131.674ZM130.674 1.814H141.983V-0.186001H130.674V1.814ZM141.51 25.636C144.475 25.636 146.92 24.8213 148.703 23.0707L147.302 21.6433C145.99 22.9314 144.106 23.636 141.51 23.636V25.636ZM148.703 23.0707C150.493 21.3141 151.325 18.8766 151.325 15.907H149.325C149.325 18.4987 148.609 20.3612 147.302 21.6433L148.703 23.0707ZM151.325 15.907C151.325 12.9364 150.493 10.4897 148.71 8.70689L147.296 10.1211C148.609 11.4343 149.325 13.3163 149.325 15.907H151.325ZM148.71 8.70689C146.927 6.9241 144.48 6.092 141.51 6.092V8.092C144.101 8.092 145.982 8.8079 147.296 10.1211L148.71 8.70689ZM141.51 6.092H138.027V8.092H141.51V6.092ZM137.027 7.092V24.636H139.027V7.092H137.027ZM138.027 25.636H141.51V23.636H138.027V25.636ZM166.904 30.226L166.525 31.1513L166.525 31.1513L166.904 30.226ZM162.69 27.044L161.884 27.6361L161.892 27.6466L162.69 27.044ZM161.056 21.97V20.97H160.027L160.056 21.999L161.056 21.97ZM168.882 21.97L169.877 21.868L169.785 20.97H168.882V21.97ZM170.043 24.55L169.369 25.2885L169.378 25.2967L169.387 25.3046L170.043 24.55ZM175.203 24.679L175.814 25.4703L175.825 25.4618L175.836 25.453L175.203 24.679ZM175.375 20.723L174.668 21.4301L174.678 21.4402L174.688 21.45L175.375 20.723ZM173.526 19.519L173.123 20.4343L173.13 20.4372L173.136 20.44L173.526 19.519ZM170.43 18.444L170.135 19.3995L170.145 19.4024L170.43 18.444ZM165.657 16.638L165.218 17.5366L165.657 16.638ZM162.475 13.972L163.273 13.3689L163.273 13.3689L162.475 13.972ZM164.195 2.792L164.807 3.58258L164.814 3.57717L164.195 2.792ZM180.191 2.792L179.572 3.5772L179.579 3.58255L180.191 2.792ZM183.459 9.414V10.414H184.511L184.458 9.36356L183.459 9.414ZM175.504 9.414L174.506 9.47272L174.561 10.414H175.504V9.414ZM174.429 7.135L173.773 7.8896L173.782 7.89791L173.792 7.90596L174.429 7.135ZM169.742 7.006L170.386 7.77091L170.398 7.76125L170.409 7.75124L169.742 7.006ZM170.301 11.306L170.812 10.4461L170.812 10.4461L170.301 11.306ZM174.601 13.069L174.921 12.1216L174.909 12.1176L174.601 13.069ZM179.331 14.961L178.884 15.8555L178.892 15.8596L179.331 14.961ZM182.513 17.584L181.723 18.1966L181.723 18.1966L182.513 17.584ZM182.513 26.7L181.668 26.1654L181.664 26.1716L181.66 26.1778L182.513 26.7ZM178.729 30.054L178.282 29.1596L178.282 29.1596L178.729 30.054ZM172.838 30.301C170.739 30.301 168.893 29.9605 167.283 29.3007L166.525 31.1513C168.412 31.9249 170.522 32.301 172.838 32.301V30.301ZM167.283 29.3007C165.688 28.6469 164.433 27.6923 163.488 26.4414L161.892 27.6466C163.069 29.205 164.623 30.3718 166.525 31.1513L167.283 29.3007ZM163.496 26.4519C162.6 25.2325 162.108 23.7445 162.056 21.941L160.056 21.999C160.119 24.1515 160.716 26.0462 161.884 27.6361L163.496 26.4519ZM161.056 22.97H168.882V20.97H161.056V22.97ZM167.887 22.072C168.02 23.3688 168.485 24.4813 169.369 25.2885L170.717 23.8115C170.283 23.4147 169.973 22.8072 169.877 21.868L167.887 22.072ZM169.387 25.3046C170.265 26.0683 171.375 26.41 172.623 26.41V24.41C171.75 24.41 171.14 24.1784 170.699 23.7954L169.387 25.3046ZM172.623 26.41C173.853 26.41 174.954 26.1349 175.814 25.4703L174.592 23.8877C174.19 24.1978 173.571 24.41 172.623 24.41V26.41ZM175.836 25.453C176.722 24.7283 177.149 23.7297 177.149 22.572H175.149C175.149 23.1917 174.945 23.5977 174.57 23.905L175.836 25.453ZM177.149 22.572C177.149 21.567 176.789 20.6826 176.062 19.996L174.688 21.45C174.993 21.7381 175.149 22.0863 175.149 22.572H177.149ZM176.082 20.0159C175.489 19.4231 174.759 18.9549 173.916 18.598L173.136 20.44C173.783 20.7137 174.286 21.0482 174.668 21.4301L176.082 20.0159ZM173.929 18.6037C173.155 18.2633 172.077 17.8911 170.715 17.4856L170.145 19.4024C171.478 19.7996 172.463 20.144 173.123 20.4343L173.929 18.6037ZM170.725 17.4885C168.804 16.8952 167.266 16.3107 166.096 15.7394L165.218 17.5366C166.514 18.1693 168.158 18.7888 170.135 19.3995L170.725 17.4885ZM166.096 15.7394C165.015 15.2114 164.074 14.4284 163.273 13.3689L161.677 14.5751C162.654 15.8662 163.834 16.8606 165.218 17.5366L166.096 15.7394ZM163.273 13.3689C162.548 12.4111 162.142 11.1076 162.142 9.371H160.142C160.142 11.4184 160.624 13.1823 161.677 14.5751L163.273 13.3689ZM162.142 9.371C162.142 6.83851 163.041 4.9508 164.807 3.58255L163.583 2.00145C161.278 3.78653 160.142 6.28482 160.142 9.371H162.142ZM164.814 3.57717C166.631 2.14391 169.047 1.384 172.15 1.384V-0.616001C168.717 -0.616001 165.829 0.229424 163.576 2.00683L164.814 3.57717ZM172.15 1.384C175.315 1.384 177.757 2.14619 179.572 3.57717L180.81 2.00683C178.554 0.227142 175.636 -0.616001 172.15 -0.616001V1.384ZM179.579 3.58255C181.358 4.9608 182.33 6.88367 182.46 9.46444L184.458 9.36356C184.301 6.26833 183.095 3.77654 180.803 2.00145L179.579 3.58255ZM183.459 8.414H175.504V10.414H183.459V8.414ZM176.502 9.35528C176.431 8.1465 175.971 7.11141 175.066 6.36404L173.792 7.90596C174.206 8.24792 174.462 8.73217 174.506 9.47272L176.502 9.35528ZM175.085 6.38039C174.212 5.62102 173.119 5.275 171.892 5.275V7.275C172.729 7.275 173.327 7.50231 173.773 7.8896L175.085 6.38039ZM171.892 5.275C170.813 5.275 169.841 5.57568 169.075 6.26076L170.409 7.75124C170.732 7.46164 171.194 7.275 171.892 7.275V5.275ZM169.098 6.24109C168.273 6.93564 167.925 7.92289 167.925 9.027H169.925C169.925 8.35377 170.122 7.99369 170.386 7.77091L169.098 6.24109ZM167.925 9.027C167.925 10.3931 168.604 11.4616 169.79 12.1659L170.812 10.4461C170.163 10.0611 169.925 9.61023 169.925 9.027H167.925ZM169.79 12.1659C170.806 12.7688 172.325 13.3837 174.293 14.0204L174.909 12.1176C172.978 11.4929 171.631 10.9325 170.812 10.4461L169.79 12.1659ZM174.281 14.0163C176.207 14.6677 177.736 15.2816 178.884 15.8554L179.778 14.0666C178.518 13.4364 176.894 12.7889 174.921 12.1217L174.281 14.0163ZM178.892 15.8596C179.979 16.3905 180.922 17.1638 181.723 18.1966L183.303 16.9714C182.327 15.7109 181.148 14.7355 179.77 14.0624L178.892 15.8596ZM181.723 18.1966C182.445 19.1287 182.846 20.3734 182.846 22.013H184.846C184.846 20.0406 184.358 18.3327 183.303 16.9714L181.723 18.1966ZM182.846 22.013C182.846 23.5507 182.452 24.9264 181.668 26.1654L183.358 27.2346C184.352 25.6643 184.846 23.9153 184.846 22.013H182.846ZM181.66 26.1778C180.91 27.4031 179.799 28.4009 178.282 29.1596L179.176 30.9484C180.984 30.0445 182.396 28.8063 183.366 27.2222L181.66 26.1778ZM178.282 29.1596C176.785 29.908 174.981 30.301 172.838 30.301V32.301C175.225 32.301 177.348 31.8627 179.176 30.9484L178.282 29.1596Z" fill="#1E1E1E"/>
    <defs>
    <linearGradient id="paint0_linear_1_4" x1="97.5" y1="-38" x2="-98.6135" y2="-169.921" gradientUnits="userSpaceOnUse">
    <stop stop-color="#1E1E1E"/>
    <stop offset="0.9997" stop-color="#339C96"/>
    <stop offset="0.9998" stop-color="#1E1824" stop-opacity="0.395833"/>
    <stop offset="0.9999" stop-color="#1E1824" stop-opacity="0.395833"/>
    <stop offset="1" stop-color="#1E1E1E" stop-opacity="0"/>
    </linearGradient>
    </defs>
</svg>
