<svg width="160" height="31" viewBox="0 0 160 31" fill="none" xmlns="http://www.w3.org/2000/svg">
<path d="M18.941 15.52C20.6897 15.8927 22.0943 16.767 23.155 18.143C24.2157 19.4903 24.746 21.0383 24.746 22.787C24.746 25.3097 23.8573 27.3163 22.08 28.807C20.3313 30.269 17.8803 31 14.727 31H0.666V0.813999H14.254C17.3213 0.813999 19.715 1.51633 21.435 2.921C23.1837 4.32566 24.058 6.232 24.058 8.64C24.058 10.4173 23.585 11.8937 22.639 13.069C21.7217 14.2443 20.489 15.0613 18.941 15.52ZM8.019 13.026H12.835C14.039 13.026 14.9563 12.768 15.587 12.252C16.2463 11.7073 16.576 10.919 16.576 9.887C16.576 8.855 16.2463 8.06667 15.587 7.522C14.9563 6.97733 14.039 6.705 12.835 6.705H8.019V13.026ZM13.437 25.066C14.6697 25.066 15.6157 24.7937 16.275 24.249C16.963 23.6757 17.307 22.8587 17.307 21.798C17.307 20.7373 16.9487 19.906 16.232 19.304C15.544 18.702 14.5837 18.401 13.351 18.401H8.019V25.066H13.437ZM36.3637 0.813999V31H29.0107V0.813999H36.3637ZM68.6964 31H61.3434L49.0454 12.381V31H41.6924V0.813999H49.0454L61.3434 19.519V0.813999H68.6964V31ZM92.8174 25.668H81.5514L79.7454 31H72.0484L82.9704 0.813999H91.4844L102.406 31H94.6234L92.8174 25.668ZM90.9254 19.992L87.1844 8.941L83.4864 19.992H90.9254ZM121.124 31L114.846 19.605H113.083V31H105.73V0.813999H118.071C120.451 0.813999 122.472 1.22967 124.134 2.061C125.826 2.89233 127.087 4.039 127.918 5.501C128.75 6.93433 129.165 8.53966 129.165 10.317C129.165 12.3237 128.592 14.1153 127.445 15.692C126.327 17.2687 124.665 18.3867 122.457 19.046L129.423 31H121.124ZM113.083 14.402H117.641C118.989 14.402 119.992 14.0723 120.651 13.413C121.339 12.7537 121.683 11.822 121.683 10.618C121.683 9.47133 121.339 8.56833 120.651 7.909C119.992 7.24967 118.989 6.92 117.641 6.92H113.083V14.402ZM159.667 0.813999L149.218 21.024V31H141.865V21.024L131.416 0.813999H139.758L145.606 13.456L151.411 0.813999H159.667Z" fill="url(#paint0_linear_3_1149)"/>
<path d="M18.941 15.52L18.6569 14.5612L18.7326 16.498L18.941 15.52ZM23.155 18.143L22.363 18.7535L22.3693 18.7616L23.155 18.143ZM22.08 28.807L22.7214 29.5742L22.7226 29.5732L22.08 28.807ZM0.666 31H-0.334V32H0.666V31ZM0.666 0.813999V-0.186001H-0.334V0.813999H0.666ZM21.435 2.921L20.8024 3.69556L20.8087 3.70062L21.435 2.921ZM22.639 13.069L21.86 12.442L21.8553 12.4478L21.8507 12.4537L22.639 13.069ZM8.019 13.026H7.019V14.026H8.019V13.026ZM15.587 12.252L16.2202 13.026L16.2239 13.023L15.587 12.252ZM15.587 7.522L14.9334 8.27882L14.9417 8.28598L14.9501 8.29296L15.587 7.522ZM8.019 6.705V5.705H7.019V6.705H8.019ZM16.275 24.249L16.9119 25.02L16.9152 25.0172L16.275 24.249ZM16.232 19.304L15.5735 20.0566L15.5811 20.0632L15.5888 20.0697L16.232 19.304ZM8.019 18.401V17.401H7.019V18.401H8.019ZM8.019 25.066H7.019V26.066H8.019V25.066ZM18.7326 16.498C20.2567 16.8228 21.4517 17.5712 22.363 18.7535L23.947 17.5325C22.737 15.9628 21.1227 14.9625 19.1494 14.542L18.7326 16.498ZM22.3693 18.7616C23.2882 19.9288 23.746 21.2579 23.746 22.787H25.746C25.746 20.8188 25.1431 19.0518 23.9407 17.5244L22.3693 18.7616ZM23.746 22.787C23.746 25.0434 22.9666 26.7582 21.4374 28.0408L22.7226 29.5732C24.7481 27.8744 25.746 25.576 25.746 22.787H23.746ZM21.4386 28.0398C19.9281 29.3026 17.7352 30 14.727 30V32C18.0255 32 20.7345 31.2354 22.7214 29.5742L21.4386 28.0398ZM14.727 30H0.666V32H14.727V30ZM1.666 31V0.813999H-0.334V31H1.666ZM0.666 1.814H14.254V-0.186001H0.666V1.814ZM14.254 1.814C17.1779 1.814 19.3185 2.48362 20.8025 3.69553L22.0675 2.14647C20.1115 0.549047 17.4648 -0.186001 14.254 -0.186001V1.814ZM20.8087 3.70062C22.3019 4.90001 23.058 6.50949 23.058 8.64H25.058C25.058 5.95451 24.0655 3.75132 22.0613 2.14138L20.8087 3.70062ZM23.058 8.64C23.058 10.2316 22.6385 11.4748 21.86 12.442L23.418 13.696C24.5315 12.3126 25.058 10.603 25.058 8.64H23.058ZM21.8507 12.4537C21.0723 13.451 20.0226 14.1566 18.6569 14.5612L19.2251 16.4788C20.9554 15.9661 22.371 15.0376 23.4273 13.6843L21.8507 12.4537ZM8.019 14.026H12.835V12.026H8.019V14.026ZM12.835 14.026C14.1633 14.026 15.3429 13.7437 16.2202 13.026L14.9538 11.478C14.5697 11.7922 13.9147 12.026 12.835 12.026V14.026ZM16.2239 13.023C17.1609 12.2489 17.576 11.1493 17.576 9.887H15.576C15.576 10.6887 15.3317 11.1658 14.9501 11.481L16.2239 13.023ZM17.576 9.887C17.576 8.62472 17.1609 7.52511 16.2239 6.75104L14.9501 8.29296C15.3317 8.60822 15.576 9.08527 15.576 9.887H17.576ZM16.2406 6.76518C15.3622 6.00655 14.1742 5.705 12.835 5.705V7.705C13.9038 7.705 14.5505 7.94812 14.9334 8.27882L16.2406 6.76518ZM12.835 5.705H8.019V7.705H12.835V5.705ZM7.019 6.705V13.026H9.019V6.705H7.019ZM13.437 26.066C14.8019 26.066 16.0089 25.7659 16.9119 25.02L15.6381 23.478C15.2225 23.8214 14.5374 24.066 13.437 24.066V26.066ZM16.9152 25.0172C17.874 24.2182 18.307 23.0948 18.307 21.798H16.307C16.307 22.6225 16.052 23.1331 15.6348 23.4808L16.9152 25.0172ZM18.307 21.798C18.307 20.4861 17.8498 19.357 16.8752 18.5383L15.5888 20.0697C16.0475 20.455 16.307 20.9886 16.307 21.798H18.307ZM16.8905 18.5514C15.965 17.7416 14.7407 17.401 13.351 17.401V19.401C14.4266 19.401 15.123 19.6624 15.5735 20.0566L16.8905 18.5514ZM13.351 17.401H8.019V19.401H13.351V17.401ZM7.019 18.401V25.066H9.019V18.401H7.019ZM8.019 26.066H13.437V24.066H8.019V26.066ZM36.3637 0.813999H37.3637V-0.186001H36.3637V0.813999ZM36.3637 31V32H37.3637V31H36.3637ZM29.0107 31H28.0107V32H29.0107V31ZM29.0107 0.813999V-0.186001H28.0107V0.813999H29.0107ZM35.3637 0.813999V31H37.3637V0.813999H35.3637ZM36.3637 30H29.0107V32H36.3637V30ZM30.0107 31V0.813999H28.0107V31H30.0107ZM29.0107 1.814H36.3637V-0.186001H29.0107V1.814ZM68.6964 31V32H69.6964V31H68.6964ZM61.3434 31L60.509 31.5511L60.8054 32H61.3434V31ZM49.0454 12.381L49.8798 11.8299L48.0454 9.05258V12.381H49.0454ZM49.0454 31V32H50.0454V31H49.0454ZM41.6924 31H40.6924V32H41.6924V31ZM41.6924 0.813999V-0.186001H40.6924V0.813999H41.6924ZM49.0454 0.813999L49.8809 0.264629L49.5847 -0.186001H49.0454V0.813999ZM61.3434 19.519L60.5078 20.0684L62.3434 22.8602V19.519H61.3434ZM61.3434 0.813999V-0.186001H60.3434V0.813999H61.3434ZM68.6964 0.813999H69.6964V-0.186001H68.6964V0.813999ZM68.6964 30H61.3434V32H68.6964V30ZM62.1778 30.4489L49.8798 11.8299L48.211 12.9321L60.509 31.5511L62.1778 30.4489ZM48.0454 12.381V31H50.0454V12.381H48.0454ZM49.0454 30H41.6924V32H49.0454V30ZM42.6924 31V0.813999H40.6924V31H42.6924ZM41.6924 1.814H49.0454V-0.186001H41.6924V1.814ZM48.2098 1.36337L60.5078 20.0684L62.1789 18.9696L49.8809 0.264629L48.2098 1.36337ZM62.3434 19.519V0.813999H60.3434V19.519H62.3434ZM61.3434 1.814H68.6964V-0.186001H61.3434V1.814ZM67.6964 0.813999V31H69.6964V0.813999H67.6964ZM92.8174 25.668L93.7645 25.3472L93.5344 24.668H92.8174V25.668ZM81.5514 25.668V24.668H80.8343L80.6042 25.3472L81.5514 25.668ZM79.7454 31V32H80.4624L80.6925 31.3208L79.7454 31ZM72.0484 31L71.108 30.6598L70.6231 32H72.0484V31ZM82.9704 0.813999V-0.186001H82.2687L82.03 0.473762L82.9704 0.813999ZM91.4844 0.813999L92.4247 0.473762L92.186 -0.186001H91.4844V0.813999ZM102.406 31V32H103.832L103.347 30.6598L102.406 31ZM94.6234 31L93.6762 31.3208L93.9063 32H94.6234V31ZM90.9254 19.992V20.992H92.3196L91.8726 19.6714L90.9254 19.992ZM87.1844 8.941L88.1316 8.62035L87.1789 5.80612L86.236 8.62366L87.1844 8.941ZM83.4864 19.992L82.538 19.6747L82.0972 20.992H83.4864V19.992ZM92.8174 24.668H81.5514V26.668H92.8174V24.668ZM80.6042 25.3472L78.7982 30.6792L80.6925 31.3208L82.4985 25.9888L80.6042 25.3472ZM79.7454 30H72.0484V32H79.7454V30ZM72.9887 31.3402L83.9107 1.15424L82.03 0.473762L71.108 30.6598L72.9887 31.3402ZM82.9704 1.814H91.4844V-0.186001H82.9704V1.814ZM90.544 1.15424L101.466 31.3402L103.347 30.6598L92.4247 0.473762L90.544 1.15424ZM102.406 30H94.6234V32H102.406V30ZM95.5705 30.6792L93.7645 25.3472L91.8702 25.9888L93.6762 31.3208L95.5705 30.6792ZM91.8726 19.6714L88.1316 8.62035L86.2372 9.26165L89.9782 20.3126L91.8726 19.6714ZM86.236 8.62366L82.538 19.6747L84.4347 20.3093L88.1327 9.25833L86.236 8.62366ZM83.4864 20.992H90.9254V18.992H83.4864V20.992ZM121.124 31L120.249 31.4826L120.534 32H121.124V31ZM114.846 19.605L115.722 19.1224L115.437 18.605H114.846V19.605ZM113.083 19.605V18.605H112.083V19.605H113.083ZM113.083 31V32H114.083V31H113.083ZM105.73 31H104.73V32H105.73V31ZM105.73 0.813999V-0.186001H104.73V0.813999H105.73ZM124.134 2.061L123.687 2.95545L123.693 2.95845L124.134 2.061ZM127.918 5.501L127.049 5.99532L127.053 6.00272L127.918 5.501ZM127.445 15.692L126.637 15.1038L126.63 15.1136L127.445 15.692ZM122.457 19.046L122.171 18.0878L120.954 18.4515L121.593 19.5495L122.457 19.046ZM129.423 31V32H131.164L130.287 30.4965L129.423 31ZM113.083 14.402H112.083V15.402H113.083V14.402ZM120.651 13.413L119.96 12.691L119.952 12.6984L119.944 12.7059L120.651 13.413ZM120.651 7.909L119.944 8.61611L119.952 8.62363L119.96 8.63099L120.651 7.909ZM113.083 6.92V5.92H112.083V6.92H113.083ZM122 30.5174L115.722 19.1224L113.971 20.0876L120.249 31.4826L122 30.5174ZM114.846 18.605H113.083V20.605H114.846V18.605ZM112.083 19.605V31H114.083V19.605H112.083ZM113.083 30H105.73V32H113.083V30ZM106.73 31V0.813999H104.73V31H106.73ZM105.73 1.814H118.071V-0.186001H105.73V1.814ZM118.071 1.814C120.338 1.814 122.197 2.21018 123.687 2.95543L124.582 1.16657C122.747 0.249148 120.564 -0.186001 118.071 -0.186001V1.814ZM123.693 2.95845C125.227 3.71242 126.329 4.72817 127.049 5.9953L128.788 5.0067C127.846 3.34983 126.424 2.07224 124.576 1.16355L123.693 2.95845ZM127.053 6.00272C127.79 7.27256 128.165 8.70263 128.165 10.317H130.165C130.165 8.3767 129.71 6.5961 128.783 4.99928L127.053 6.00272ZM128.165 10.317C128.165 12.119 127.655 13.7034 126.637 15.1038L128.254 16.2802C129.529 14.5273 130.165 12.5284 130.165 10.317H128.165ZM126.63 15.1136C125.664 16.4749 124.207 17.4797 122.171 18.0878L122.744 20.0042C125.122 19.2936 126.991 18.0624 128.261 16.2704L126.63 15.1136ZM121.593 19.5495L128.559 31.5035L130.287 30.4965L123.321 18.5425L121.593 19.5495ZM129.423 30H121.124V32H129.423V30ZM113.083 15.402H117.641V13.402H113.083V15.402ZM117.641 15.402C119.136 15.402 120.442 15.0367 121.359 14.1201L119.944 12.7059C119.542 13.108 118.842 13.402 117.641 13.402V15.402ZM121.343 14.135C122.277 13.2402 122.683 12.0185 122.683 10.618H120.683C120.683 11.6255 120.402 12.2672 119.96 12.691L121.343 14.135ZM122.683 10.618C122.683 9.25841 122.267 8.0726 121.343 7.18701L119.96 8.63099C120.411 9.06407 120.683 9.68426 120.683 10.618H122.683ZM121.359 7.20189C120.442 6.28528 119.136 5.92 117.641 5.92V7.92C118.842 7.92 119.542 8.21405 119.944 8.61611L121.359 7.20189ZM117.641 5.92H113.083V7.92H117.641V5.92ZM112.083 6.92V14.402H114.083V6.92H112.083ZM159.667 0.813999L160.556 1.27327L161.31 -0.186001H159.667V0.813999ZM149.218 21.024L148.33 20.5647L148.218 20.7808V21.024H149.218ZM149.218 31V32H150.218V31H149.218ZM141.865 31H140.865V32H141.865V31ZM141.865 21.024H142.865V20.7808L142.754 20.5647L141.865 21.024ZM131.416 0.813999V-0.186001H129.773L130.528 1.27327L131.416 0.813999ZM139.758 0.813999L140.666 0.394158L140.397 -0.186001H139.758V0.813999ZM145.606 13.456L144.699 13.8758L145.61 15.8451L146.515 13.8733L145.606 13.456ZM151.411 0.813999V-0.186001H150.77L150.502 0.396706L151.411 0.813999ZM158.779 0.35473L148.33 20.5647L150.107 21.4833L160.556 1.27327L158.779 0.35473ZM148.218 21.024V31H150.218V21.024H148.218ZM149.218 30H141.865V32H149.218V30ZM142.865 31V21.024H140.865V31H142.865ZM142.754 20.5647L132.305 0.35473L130.528 1.27327L140.977 21.4833L142.754 20.5647ZM131.416 1.814H139.758V-0.186001H131.416V1.814ZM138.851 1.23384L144.699 13.8758L146.514 13.0362L140.666 0.394158L138.851 1.23384ZM146.515 13.8733L152.32 1.23129L150.502 0.396706L144.697 13.0387L146.515 13.8733ZM151.411 1.814H159.667V-0.186001H151.411V1.814Z" fill="#1E1E1E"/>
<defs>
<linearGradient id="paint0_linear_3_1149" x1="176" y1="15" x2="-108.73" y2="-118.508" gradientUnits="userSpaceOnUse">
<stop stop-color="#1E1E1E"/>
<stop offset="0.9997" stop-color="#339C96"/>
<stop offset="0.9998" stop-color="#1E1824" stop-opacity="0.395833"/>
<stop offset="0.9999" stop-color="#1E1824" stop-opacity="0.395833"/>
<stop offset="1" stop-color="white"/>
</linearGradient>
</defs>
</svg>
