<svg width="257" height="31" viewBox="0 0 257 31" fill="none" xmlns="http://www.w3.org/2000/svg">
    <path d="M23.381 0.813999V6.705H15.383V31H8.03V6.705H0.032V0.813999H23.381ZM45.5613 12.854V18.96H26.6413V12.854H45.5613ZM93.5526 0.813999L85.6836 31H76.7826L71.9666 11.134L66.9786 31H58.0776L50.4236 0.813999H58.2926L62.6356 22.787L68.0106 0.813999H76.0946L81.2546 22.787L85.6406 0.813999H93.5526ZM104.593 6.705V12.811H114.44V18.487H104.593V25.109H115.73V31H97.2402V0.813999H115.73V6.705H104.593ZM139.295 25.668H128.029L126.223 31H118.526L129.448 0.813999H137.962L148.884 31H141.101L139.295 25.668ZM137.403 19.992L133.662 8.941L129.964 19.992H137.403ZM173.923 0.813999V6.705H165.925V31H158.572V6.705H150.574V0.813999H173.923ZM203.757 0.813999V31H196.404V18.573H184.966V31H177.613V0.813999H184.966V12.639H196.404V0.813999H203.757ZM216.418 6.705V12.811H226.265V18.487H216.418V25.109H227.555V31H209.065V0.813999H227.555V6.705H216.418ZM247.723 31L241.445 19.605H239.682V31H232.329V0.813999H244.67C247.049 0.813999 249.07 1.22967 250.733 2.061C252.424 2.89233 253.686 4.039 254.517 5.501C255.348 6.93433 255.764 8.53966 255.764 10.317C255.764 12.3237 255.191 14.1153 254.044 15.692C252.926 17.2687 251.263 18.3867 249.056 19.046L256.022 31H247.723ZM239.682 14.402H244.24C245.587 14.402 246.591 14.0723 247.25 13.413C247.938 12.7537 248.282 11.822 248.282 10.618C248.282 9.47133 247.938 8.56833 247.25 7.909C246.591 7.24967 245.587 6.92 244.24 6.92H239.682V14.402Z" fill="url(#paint0_linear_3_1149)"/>
    <path d="M23.381 0.813999H24.381V-0.186001H23.381V0.813999ZM23.381 6.705V7.705H24.381V6.705H23.381ZM15.383 6.705V5.705H14.383V6.705H15.383ZM15.383 31V32H16.383V31H15.383ZM8.03 31H7.03V32H8.03V31ZM8.03 6.705H9.03V5.705H8.03V6.705ZM0.032 6.705H-0.968V7.705H0.032V6.705ZM0.032 0.813999V-0.186001H-0.968V0.813999H0.032ZM22.381 0.813999V6.705H24.381V0.813999H22.381ZM23.381 5.705H15.383V7.705H23.381V5.705ZM14.383 6.705V31H16.383V6.705H14.383ZM15.383 30H8.03V32H15.383V30ZM9.03 31V6.705H7.03V31H9.03ZM8.03 5.705H0.032V7.705H8.03V5.705ZM1.032 6.705V0.813999H-0.968V6.705H1.032ZM0.032 1.814H23.381V-0.186001H0.032V1.814ZM45.5613 12.854H46.5613V11.854H45.5613V12.854ZM45.5613 18.96V19.96H46.5613V18.96H45.5613ZM26.6413 18.96H25.6413V19.96H26.6413V18.96ZM26.6413 12.854V11.854H25.6413V12.854H26.6413ZM44.5613 12.854V18.96H46.5613V12.854H44.5613ZM45.5613 17.96H26.6413V19.96H45.5613V17.96ZM27.6413 18.96V12.854H25.6413V18.96H27.6413ZM26.6413 13.854H45.5613V11.854H26.6413V13.854ZM93.5526 0.813999L94.5203 1.06625L94.8467 -0.186001H93.5526V0.813999ZM85.6836 31V32H86.4564L86.6513 31.2523L85.6836 31ZM76.7826 31L75.8108 31.2356L75.9961 32H76.7826V31ZM71.9666 11.134L72.9385 10.8984L70.9967 10.8905L71.9666 11.134ZM66.9786 31V32H67.7586L67.9485 31.2435L66.9786 31ZM58.0776 31L57.1083 31.2458L57.2995 32H58.0776V31ZM50.4236 0.813999V-0.186001H49.1384L49.4543 1.05978L50.4236 0.813999ZM58.2926 0.813999L59.2737 0.620099L59.1143 -0.186001H58.2926V0.813999ZM62.6356 22.787L61.6546 22.9809L63.607 23.0246L62.6356 22.787ZM68.0106 0.813999V-0.186001H67.2258L67.0393 0.576387L68.0106 0.813999ZM76.0946 0.813999L77.0682 0.585384L76.887 -0.186001H76.0946V0.813999ZM81.2546 22.787L80.2811 23.0156L82.2353 22.9827L81.2546 22.787ZM85.6406 0.813999V-0.186001H84.8205L84.66 0.618252L85.6406 0.813999ZM92.585 0.561746L84.716 30.7477L86.6513 31.2523L94.5203 1.06625L92.585 0.561746ZM85.6836 30H76.7826V32H85.6836V30ZM77.7545 30.7644L72.9385 10.8984L70.9948 11.3696L75.8108 31.2356L77.7545 30.7644ZM70.9967 10.8905L66.0087 30.7565L67.9485 31.2435L72.9365 11.3775L70.9967 10.8905ZM66.9786 30H58.0776V32H66.9786V30ZM59.047 30.7542L51.393 0.568216L49.4543 1.05978L57.1083 31.2458L59.047 30.7542ZM50.4236 1.814H58.2926V-0.186001H50.4236V1.814ZM57.3116 1.0079L61.6546 22.9809L63.6167 22.5931L59.2737 0.620099L57.3116 1.0079ZM63.607 23.0246L68.982 1.05161L67.0393 0.576387L61.6643 22.5494L63.607 23.0246ZM68.0106 1.814H76.0946V-0.186001H68.0106V1.814ZM75.1211 1.04261L80.2811 23.0156L82.2282 22.5584L77.0682 0.585384L75.1211 1.04261ZM82.2353 22.9827L86.6213 1.00975L84.66 0.618252L80.274 22.5913L82.2353 22.9827ZM85.6406 1.814H93.5526V-0.186001H85.6406V1.814ZM104.593 6.705V5.705H103.593V6.705H104.593ZM104.593 12.811H103.593V13.811H104.593V12.811ZM114.44 12.811H115.44V11.811H114.44V12.811ZM114.44 18.487V19.487H115.44V18.487H114.44ZM104.593 18.487V17.487H103.593V18.487H104.593ZM104.593 25.109H103.593V26.109H104.593V25.109ZM115.73 25.109H116.73V24.109H115.73V25.109ZM115.73 31V32H116.73V31H115.73ZM97.2402 31H96.2402V32H97.2402V31ZM97.2402 0.813999V-0.186001H96.2402V0.813999H97.2402ZM115.73 0.813999H116.73V-0.186001H115.73V0.813999ZM115.73 6.705V7.705H116.73V6.705H115.73ZM103.593 6.705V12.811H105.593V6.705H103.593ZM104.593 13.811H114.44V11.811H104.593V13.811ZM113.44 12.811V18.487H115.44V12.811H113.44ZM114.44 17.487H104.593V19.487H114.44V17.487ZM103.593 18.487V25.109H105.593V18.487H103.593ZM104.593 26.109H115.73V24.109H104.593V26.109ZM114.73 25.109V31H116.73V25.109H114.73ZM115.73 30H97.2402V32H115.73V30ZM98.2402 31V0.813999H96.2402V31H98.2402ZM97.2402 1.814H115.73V-0.186001H97.2402V1.814ZM114.73 0.813999V6.705H116.73V0.813999H114.73ZM115.73 5.705H104.593V7.705H115.73V5.705ZM139.295 25.668L140.242 25.3472L140.012 24.668H139.295V25.668ZM128.029 25.668V24.668H127.312L127.082 25.3472L128.029 25.668ZM126.223 31V32H126.94L127.17 31.3208L126.223 31ZM118.526 31L117.586 30.6598L117.101 32H118.526V31ZM129.448 0.813999V-0.186001H128.746L128.508 0.473762L129.448 0.813999ZM137.962 0.813999L138.902 0.473762L138.664 -0.186001H137.962V0.813999ZM148.884 31V32H150.309L149.824 30.6598L148.884 31ZM141.101 31L140.154 31.3208L140.384 32H141.101V31ZM137.403 19.992V20.992H138.797L138.35 19.6714L137.403 19.992ZM133.662 8.941L134.609 8.62035L133.656 5.80612L132.714 8.62366L133.662 8.941ZM129.964 19.992L129.016 19.6747L128.575 20.992H129.964V19.992ZM139.295 24.668H128.029V26.668H139.295V24.668ZM127.082 25.3472L125.276 30.6792L127.17 31.3208L128.976 25.9888L127.082 25.3472ZM126.223 30H118.526V32H126.223V30ZM119.466 31.3402L130.388 1.15424L128.508 0.473762L117.586 30.6598L119.466 31.3402ZM129.448 1.814H137.962V-0.186001H129.448V1.814ZM137.022 1.15424L147.944 31.3402L149.824 30.6598L138.902 0.473762L137.022 1.15424ZM148.884 30H141.101V32H148.884V30ZM142.048 30.6792L140.242 25.3472L138.348 25.9888L140.154 31.3208L142.048 30.6792ZM138.35 19.6714L134.609 8.62035L132.715 9.26165L136.456 20.3126L138.35 19.6714ZM132.714 8.62366L129.016 19.6747L130.912 20.3093L134.61 9.25833L132.714 8.62366ZM129.964 20.992H137.403V18.992H129.964V20.992ZM173.923 0.813999H174.923V-0.186001H173.923V0.813999ZM173.923 6.705V7.705H174.923V6.705H173.923ZM165.925 6.705V5.705H164.925V6.705H165.925ZM165.925 31V32H166.925V31H165.925ZM158.572 31H157.572V32H158.572V31ZM158.572 6.705H159.572V5.705H158.572V6.705ZM150.574 6.705H149.574V7.705H150.574V6.705ZM150.574 0.813999V-0.186001H149.574V0.813999H150.574ZM172.923 0.813999V6.705H174.923V0.813999H172.923ZM173.923 5.705H165.925V7.705H173.923V5.705ZM164.925 6.705V31H166.925V6.705H164.925ZM165.925 30H158.572V32H165.925V30ZM159.572 31V6.705H157.572V31H159.572ZM158.572 5.705H150.574V7.705H158.572V5.705ZM151.574 6.705V0.813999H149.574V6.705H151.574ZM150.574 1.814H173.923V-0.186001H150.574V1.814ZM203.757 0.813999H204.757V-0.186001H203.757V0.813999ZM203.757 31V32H204.757V31H203.757ZM196.404 31H195.404V32H196.404V31ZM196.404 18.573H197.404V17.573H196.404V18.573ZM184.966 18.573V17.573H183.966V18.573H184.966ZM184.966 31V32H185.966V31H184.966ZM177.613 31H176.613V32H177.613V31ZM177.613 0.813999V-0.186001H176.613V0.813999H177.613ZM184.966 0.813999H185.966V-0.186001H184.966V0.813999ZM184.966 12.639H183.966V13.639H184.966V12.639ZM196.404 12.639V13.639H197.404V12.639H196.404ZM196.404 0.813999V-0.186001H195.404V0.813999H196.404ZM202.757 0.813999V31H204.757V0.813999H202.757ZM203.757 30H196.404V32H203.757V30ZM197.404 31V18.573H195.404V31H197.404ZM196.404 17.573H184.966V19.573H196.404V17.573ZM183.966 18.573V31H185.966V18.573H183.966ZM184.966 30H177.613V32H184.966V30ZM178.613 31V0.813999H176.613V31H178.613ZM177.613 1.814H184.966V-0.186001H177.613V1.814ZM183.966 0.813999V12.639H185.966V0.813999H183.966ZM184.966 13.639H196.404V11.639H184.966V13.639ZM197.404 12.639V0.813999H195.404V12.639H197.404ZM196.404 1.814H203.757V-0.186001H196.404V1.814ZM216.418 6.705V5.705H215.418V6.705H216.418ZM216.418 12.811H215.418V13.811H216.418V12.811ZM226.265 12.811H227.265V11.811H226.265V12.811ZM226.265 18.487V19.487H227.265V18.487H226.265ZM216.418 18.487V17.487H215.418V18.487H216.418ZM216.418 25.109H215.418V26.109H216.418V25.109ZM227.555 25.109H228.555V24.109H227.555V25.109ZM227.555 31V32H228.555V31H227.555ZM209.065 31H208.065V32H209.065V31ZM209.065 0.813999V-0.186001H208.065V0.813999H209.065ZM227.555 0.813999H228.555V-0.186001H227.555V0.813999ZM227.555 6.705V7.705H228.555V6.705H227.555ZM215.418 6.705V12.811H217.418V6.705H215.418ZM216.418 13.811H226.265V11.811H216.418V13.811ZM225.265 12.811V18.487H227.265V12.811H225.265ZM226.265 17.487H216.418V19.487H226.265V17.487ZM215.418 18.487V25.109H217.418V18.487H215.418ZM216.418 26.109H227.555V24.109H216.418V26.109ZM226.555 25.109V31H228.555V25.109H226.555ZM227.555 30H209.065V32H227.555V30ZM210.065 31V0.813999H208.065V31H210.065ZM209.065 1.814H227.555V-0.186001H209.065V1.814ZM226.555 0.813999V6.705H228.555V0.813999H226.555ZM227.555 5.705H216.418V7.705H227.555V5.705ZM247.723 31L246.847 31.4826L247.132 32H247.723V31ZM241.445 19.605L242.321 19.1224L242.036 18.605H241.445V19.605ZM239.682 19.605V18.605H238.682V19.605H239.682ZM239.682 31V32H240.682V31H239.682ZM232.329 31H231.329V32H232.329V31ZM232.329 0.813999V-0.186001H231.329V0.813999H232.329ZM250.733 2.061L250.286 2.95545L250.292 2.95845L250.733 2.061ZM254.517 5.501L253.648 5.99532L253.652 6.00272L254.517 5.501ZM254.044 15.692L253.235 15.1038L253.228 15.1136L254.044 15.692ZM249.056 19.046L248.77 18.0878L247.552 18.4515L248.192 19.5495L249.056 19.046ZM256.022 31V32H257.762L256.886 30.4965L256.022 31ZM239.682 14.402H238.682V15.402H239.682V14.402ZM247.25 13.413L246.558 12.691L246.551 12.6984L246.543 12.7059L247.25 13.413ZM247.25 7.909L246.543 8.61611L246.551 8.62363L246.558 8.63099L247.25 7.909ZM239.682 6.92V5.92H238.682V6.92H239.682ZM248.599 30.5174L242.321 19.1224L240.569 20.0876L246.847 31.4826L248.599 30.5174ZM241.445 18.605H239.682V20.605H241.445V18.605ZM238.682 19.605V31H240.682V19.605H238.682ZM239.682 30H232.329V32H239.682V30ZM233.329 31V0.813999H231.329V31H233.329ZM232.329 1.814H244.67V-0.186001H232.329V1.814ZM244.67 1.814C246.936 1.814 248.795 2.21018 250.286 2.95543L251.18 1.16657C249.345 0.249148 247.163 -0.186001 244.67 -0.186001V1.814ZM250.292 2.95845C251.826 3.71242 252.927 4.72817 253.648 5.9953L255.386 5.0067C254.444 3.34983 253.023 2.07224 251.174 1.16355L250.292 2.95845ZM253.652 6.00272C254.389 7.27256 254.764 8.70263 254.764 10.317H256.764C256.764 8.3767 256.308 6.5961 255.382 4.99928L253.652 6.00272ZM254.764 10.317C254.764 12.119 254.254 13.7034 253.235 15.1038L254.853 16.2802C256.128 14.5273 256.764 12.5284 256.764 10.317H254.764ZM253.228 15.1136C252.263 16.4749 250.806 17.4797 248.77 18.0878L249.342 20.0042C251.721 19.2936 253.589 18.0624 254.86 16.2704L253.228 15.1136ZM248.192 19.5495L255.158 31.5035L256.886 30.4965L249.92 18.5425L248.192 19.5495ZM256.022 30H247.723V32H256.022V30ZM239.682 15.402H244.24V13.402H239.682V15.402ZM244.24 15.402C245.734 15.402 247.041 15.0367 247.957 14.1201L246.543 12.7059C246.141 13.108 245.441 13.402 244.24 13.402V15.402ZM247.942 14.135C248.876 13.2402 249.282 12.0185 249.282 10.618H247.282C247.282 11.6255 247 12.2672 246.558 12.691L247.942 14.135ZM249.282 10.618C249.282 9.25841 248.866 8.0726 247.942 7.18701L246.558 8.63099C247.01 9.06407 247.282 9.68426 247.282 10.618H249.282ZM247.957 7.20189C247.041 6.28528 245.734 5.92 244.24 5.92V7.92C245.441 7.92 246.141 8.21405 246.543 8.61611L247.957 7.20189ZM244.24 5.92H239.682V7.92H244.24V5.92ZM238.682 6.92V14.402H240.682V6.92H238.682Z" fill="#1E1E1E"/>
    <defs>
    <linearGradient id="paint0_linear_3_1149" x1="265" y1="15" x2="-83.1216" y2="-228.931" gradientUnits="userSpaceOnUse">
    <stop stop-color="#1E1E1E"/>
    <stop offset="0.9997" stop-color="#339C96"/>
    <stop offset="0.9998" stop-color="#1E1824" stop-opacity="0.395833"/>
    <stop offset="0.9999" stop-color="#1E1824" stop-opacity="0.395833"/>
    <stop offset="1" stop-color="white"/>
    </linearGradient>
    </defs>
</svg>
